<svg xmlns="http://www.w3.org/2000/svg" xmlns:xlink="http://www.w3.org/1999/xlink" width="62" height="62" viewBox="0 0 62 62">
  <defs>
    <linearGradient id="icon-2-8-b" x1="100%" x2="0%" y1="100%" y2="0%">
      <stop offset="0%" stop-color="#FFBEE8"/>
      <stop offset="29.273%" stop-color="#C06CFD" stop-opacity=".99"/>
      <stop offset="79.724%" stop-color="#8671F3"/>
      <stop offset="100%" stop-color="#1E85E9"/>
    </linearGradient>
    <rect id="icon-2-8-a" width="60" height="60" x="0" y="0" rx="4"/>
    <linearGradient id="icon-2-8-c" x1="100%" x2="0%" y1="99.998%" y2=".002%">
      <stop offset="0%" stop-color="#1E85E9"/>
      <stop offset="20.276%" stop-color="#8671F3"/>
      <stop offset="70.727%" stop-color="#C06CFD" stop-opacity=".99"/>
      <stop offset="100%" stop-color="#FFBEE8"/>
    </linearGradient>
  </defs>
  <g fill="none" fill-rule="evenodd" transform="translate(1 1)">
    <g opacity=".062">
      <use fill="#FAFAFA" xlink:href="#icon-2-8-a"/>
      <use fill="url(#icon-2-8-b)" stroke="#000" stroke-opacity=".02" xlink:href="#icon-2-8-a"/>
    </g>
    <path fill="url(#icon-2-8-c)" fill-rule="nonzero" d="M46.9907227,30.5 C47.266865,30.5 47.4907227,30.7238576 47.4907227,31 L47.4907227,31 L47.49,39.005 L51,39.0056152 C51.3775528,39.0056152 51.6085142,39.4018193 51.4504699,39.7234004 L51.4504699,39.7234004 L51.4069824,39.7960724 L43.2036132,51.2904572 C43.00325,51.5712018 42.5855158,51.5695554 42.3873717,51.2872403 L42.3873717,51.2872403 L34.3199889,39.7928555 C34.087442,39.4615233 34.324453,39.0056152 34.729248,39.0056152 L34.729248,39.0056152 L38.602,39.005 L38.6020508,31 C38.6020508,30.7545401 38.7789259,30.5503916 39.0121751,30.5080557 L39.0121751,30.5080557 L39.1020508,30.5 Z M46.49,31.5 L39.602,31.5 L39.6020508,39.5056152 C39.6020508,39.7510751 39.4251756,39.9552236 39.1919264,39.9975596 L39.1919264,39.9975596 L39.1020508,40.0056152 L35.69,40.005 L42.799,50.134 L50.029,40.005 L46.9907227,40.0056152 C46.7452628,40.0056152 46.5411143,39.8287401 46.4987783,39.5954909 L46.4987783,39.5954909 L46.4907227,39.5056152 L46.49,31.5 Z M28,10.5 C37.6649831,10.5 45.5,18.3350169 45.5,28 C45.5,28.2761424 45.2761424,28.5 45,28.5 C44.7238576,28.5 44.5,28.2761424 44.5,28 C44.5,18.8873016 37.1126984,11.5 28,11.5 C18.8873016,11.5 11.5,18.8873016 11.5,28 C11.5,37.1126984 18.8873016,44.5 28,44.5 C30.1931011,44.5 32.3257107,44.0722056 34.3077516,43.2515305 C34.5628881,43.1458898 34.8553559,43.2670801 34.9609966,43.5222167 C35.0666373,43.7773532 34.9454469,44.069821 34.6903104,44.1754617 C32.5875043,45.0461402 30.3249557,45.5 28,45.5 C18.3350169,45.5 10.5,37.6649831 10.5,28 C10.5,18.3350169 18.3350169,10.5 28,10.5 Z M28.5,17.5 C28.7454599,17.5 28.9496084,17.6768752 28.9919443,17.9101244 L29,18 L29.00152,19.635686 C30.8464083,20.0077521 32.0590191,21.4601482 32.596703,23.9022545 C32.6560798,24.1719377 32.4855927,24.4386935 32.2159095,24.4980702 C31.9462264,24.5574469 31.6794706,24.3869599 31.6200939,24.1172767 C31.1856212,22.1439457 30.3249071,21.0186064 29.0014296,20.6636582 L29,27.679 L29.7602171,28.0257721 C30.1183991,28.1921742 30.4861775,28.3682919 30.7083149,28.4898598 C32.2455621,29.3311405 33.1518555,30.329008 33.1518555,31.6665039 C33.1518555,34.4178555 32.0947538,35.8567496 29.0009199,36.1379467 L29,38.8291016 C29,39.1052439 28.7761424,39.3291016 28.5,39.3291016 C28.2545401,39.3291016 28.0503916,39.1522264 28.0080557,38.9189772 L28,38.8291016 L28.0014368,36.1878619 C27.9256202,36.1889233 27.8488099,36.1894531 27.7709961,36.1894531 C24.5941595,36.1894531 22.9335937,34.3941054 22.9335937,31 C22.9335937,30.7238576 23.1574514,30.5 23.4335937,30.5 C23.7097361,30.5 23.9335937,30.7238576 23.9335937,31 C23.9335937,33.8584987 25.1646296,35.1894531 27.7709961,35.1894531 L28,35.187 L28,28.298 L25.2897673,26.8376233 C24.0132379,26.1374251 23.9197226,26.0387137 23.6357317,25.7294899 L23.5434467,25.6295954 C23.05857,25.1106072 22.9335937,24.6186897 22.9335937,23.6308594 C22.9335937,21.124577 24.7397098,19.5400391 28,19.5400391 L28,18 C28,17.7238576 28.2238576,17.5 28.5,17.5 Z M28.9999821,28.7771274 L29.0009744,35.1388795 C31.4695709,34.9102591 32.1518555,33.8866537 32.1518555,31.6665039 C32.1518555,30.7933279 31.4773718,30.0506927 30.2282396,29.367087 L30.0211671,29.2594221 C29.7392131,29.1179923 29.3443764,28.9346772 28.9999821,28.7771274 Z M28,20.5400391 C25.2649941,20.5400391 23.9335937,21.7081004 23.9335937,23.6308594 L23.9398545,23.9713184 C23.9595966,24.4276309 24.0302373,24.6554884 24.2100853,24.8740865 L24.4418968,25.1233137 C24.7222317,25.3980823 25.1139683,25.6145552 27.9995624,27.1638599 L28,20.5400391 L28,20.5400391 Z"/>
  </g>
</svg>
