<svg xmlns="http://www.w3.org/2000/svg" width="51" height="51" viewBox="0 0 51 51">
  <defs>
    <linearGradient id="icon-28-5-a" x1="100%" x2="0%" y1="100%" y2="0%">
      <stop offset="0%" stop-color="#1E85E9"/>
      <stop offset="20.276%" stop-color="#8671F3"/>
      <stop offset="70.727%" stop-color="#C06CFD" stop-opacity=".99"/>
      <stop offset="100%" stop-color="#FFBEE8"/>
    </linearGradient>
  </defs>
  <path fill="url(#icon-28-5-a)" d="M972.5,4233 C975.117952,4233 977.321788,4237.19807 978.649231,4243.65543 C984.153823,4240.02756 988.680175,4238.61773 990.531223,4240.46878 C992.382276,4242.31983 990.972436,4246.8462 987.345557,4252.35041 C993.802363,4253.67844 998,4255.88218 998,4258.5 C998,4261.11782 993.802363,4263.32156 987.345579,4264.64902 C990.972436,4270.1538 992.382276,4274.68017 990.531223,4276.53122 C988.680175,4278.38227 984.153823,4276.97244 978.649638,4273.34559 C977.321788,4279.80193 975.117952,4284 972.5,4284 C969.882048,4284 967.678212,4279.80193 966.350769,4273.34457 C960.846177,4276.97244 956.319825,4278.38227 954.468777,4276.53122 C952.617724,4274.68017 954.027564,4270.1538 957.654443,4264.64959 C951.197637,4263.32156 947,4261.11782 947,4258.5 C947,4255.88218 951.197637,4253.67844 957.654421,4252.35098 C954.027564,4246.8462 952.617724,4242.31983 954.468777,4240.46878 C956.319825,4238.61773 960.846177,4240.02756 966.350362,4243.65441 C967.678212,4237.19807 969.882048,4233 972.5,4233 Z M972.500647,4268.69717 L972.225676,4268.92788 C970.524472,4270.35536 968.855867,4271.63169 967.259091,4272.73277 C968.471128,4278.94317 970.42273,4283 972.5,4283 C974.577278,4283 976.528887,4278.94314 977.741272,4272.73267 C976.058593,4271.57271 974.296546,4270.21811 972.500647,4268.69717 Z M958.729923,4264.85818 L958.642009,4264.98875 C955.171085,4270.17717 953.719254,4274.36749 955.175884,4275.82412 C956.644806,4277.29304 960.893745,4275.8042 966.142814,4272.26969 C965.772454,4270.25986 965.484306,4268.05563 965.289872,4265.7098 C962.944372,4265.51569 960.74014,4265.22755 958.729923,4264.85818 Z M986.270022,4264.85768 L986.234891,4264.86464 C984.234148,4265.2309 982.041949,4265.51683 979.709802,4265.71013 C979.515694,4268.05563 979.227546,4270.25986 978.858182,4272.27008 C984.106255,4275.8042 988.355194,4277.29304 989.824116,4275.82412 C991.292992,4274.35524 989.804298,4270.10652 986.270022,4264.85768 Z M978.692136,4265.78738 L978.294952,4265.81484 C977.408779,4265.8727 976.504722,4265.91744 975.585421,4265.94844 C974.812373,4266.67089 974.041084,4267.36607 973.274712,4268.03199 C974.874925,4269.37713 976.443904,4270.58665 977.942637,4271.64022 C978.25773,4269.83581 978.511963,4267.87076 978.692136,4265.78738 Z M966.306923,4265.78788 L966.317998,4265.90355 C966.497486,4267.94346 966.748038,4269.8687 967.056958,4271.63989 C968.556096,4270.58665 970.125075,4269.37713 971.725349,4268.03162 C970.958916,4267.36607 970.187627,4266.67089 969.414934,4265.94861 C968.357186,4265.91278 967.319963,4265.85895 966.306923,4265.78788 Z M974.063748,4265.98716 L973.871621,4265.9899 L973.871621,4265.9899 L973.416458,4265.9955 L972.5,4266 C971.974776,4266 971.453328,4265.99558 970.936101,4265.98686 C971.459416,4266.46221 971.981282,4266.92412 972.500543,4267.3722 C973.019388,4266.92352 973.54092,4266.46191 974.063748,4265.98716 Z M972.5,4252 C971.595967,4252 970.703153,4252.01381 969.824111,4252.0406 C969.399151,4252.44071 968.973319,4252.84947 968.547941,4253.26623 L968.547941,4253.26623 L967.903806,4253.90381 C967.264533,4254.54308 966.642958,4255.18418 966.040305,4255.82473 C966.022798,4256.40823 966.01073,4256.9983 966.004634,4257.59369 L966.004634,4257.59369 L966,4258.5 C966,4259.40403 966.013808,4260.29685 966.040601,4261.17589 C966.642958,4261.81582 967.264533,4262.45692 967.903806,4263.09619 L968.547941,4263.73377 C968.973319,4264.15053 969.399151,4264.55929 969.824738,4264.9597 C970.40823,4264.9772 970.998295,4264.98927 971.59369,4264.99537 L971.59369,4264.99537 L972.5,4265 C973.404033,4265 974.296847,4264.98619 975.175889,4264.9594 C975.600849,4264.55929 976.026681,4264.15053 976.452059,4263.73377 L976.452059,4263.73377 L977.096194,4263.09619 C977.735467,4262.45692 978.357042,4261.81582 978.959695,4261.17527 C978.977202,4260.59177 978.98927,4260.0017 978.995366,4259.40631 L978.995366,4259.40631 L979,4258.5 C979,4257.59597 978.986192,4256.70315 978.959399,4255.82411 C978.357042,4255.18418 977.735467,4254.54308 977.096194,4253.90381 L976.452059,4253.26623 C976.026681,4252.84947 975.600849,4252.44071 975.175262,4252.0403 C974.59177,4252.0228 974.001705,4252.01073 973.40631,4252.00463 L973.40631,4252.00463 Z M966.099411,4262.6874 L966.112753,4262.94415 C966.144431,4263.56239 966.182544,4264.17261 966.226784,4264.77384 C966.910052,4264.82354 967.605381,4264.86592 968.310919,4264.89993 C967.939797,4264.54016 967.568022,4264.17462 967.196699,4263.8033 L966.551847,4263.15209 C966.4,4262.99722 966.249182,4262.84232 966.099411,4262.6874 Z M978.899977,4262.68808 L978.769597,4262.82262 L978.769597,4262.82262 L978.448153,4263.15209 L977.803301,4263.8033 C977.431645,4264.17496 977.059535,4264.54081 976.687364,4264.90063 C977.393687,4264.86598 978.089579,4264.82357 978.773845,4264.77322 C978.823561,4264.08962 978.865961,4263.39396 978.899977,4262.68808 Z M962.968159,4259.27488 L962.84225,4259.42504 C961.547146,4260.97328 960.380238,4262.491 959.359667,4263.9428 C961.164186,4264.25773 963.129237,4264.51196 965.212618,4264.69214 C965.141032,4263.67972 965.087183,4262.64216 965.051529,4261.58442 C964.328874,4260.81211 963.633892,4260.04104 962.968159,4259.27488 Z M982.031534,4259.27455 L981.805078,4259.53475 C981.208723,4260.21529 980.589545,4260.89939 979.949054,4261.58459 C979.912817,4262.64216 979.858968,4263.67972 979.787883,4264.69308 C981.871082,4264.51192 983.835978,4264.2577 985.640887,4263.94287 C984.586715,4262.44398 983.377127,4260.87491 982.031534,4259.27455 Z M986.732667,4253.25873 L986.573704,4253.48851 C985.44927,4255.10163 984.148642,4256.78553 982.696377,4258.50029 C984.218337,4260.29682 985.573076,4262.05907 986.73322,4263.74157 C992.94317,4262.52887 997,4260.57727 997,4258.5 C997,4256.42272 992.943138,4254.47111 986.732667,4253.25873 Z M958.26678,4253.25843 L958.249333,4253.26224 C952.049025,4254.47489 948,4256.42473 948,4258.5 C948,4260.57728 952.056862,4262.52889 958.267333,4263.74127 C959.427459,4262.05837 960.781964,4260.29646 962.302776,4258.50071 C960.782166,4256.70383 959.427139,4254.94124 958.26678,4253.25843 Z M979.986369,4256.93538 L979.989901,4257.12838 L979.989901,4257.12838 L979.995501,4257.58354 L980,4258.5 C980,4259.02556 979.995578,4259.54734 979.986842,4260.0649 C980.461345,4259.54156 980.923173,4259.01979 981.371183,4258.50063 C980.923767,4257.98088 980.46165,4257.45878 979.986369,4256.93538 Z M965.013158,4256.9351 L964.80809,4257.16256 C964.40487,4257.60986 964.011351,4258.05607 963.627951,4258.50037 C964.076827,4259.01979 964.538655,4259.54156 965.013631,4260.06462 L965.010099,4259.87162 L965.010099,4259.87162 L965.004499,4259.41646 L965,4258.5 C965,4257.97444 965.004422,4257.45266 965.013158,4256.9351 Z M965.212117,4252.30692 L965.096449,4252.318 C963.056155,4252.49752 961.130577,4252.74813 959.359113,4253.05713 C960.413285,4254.55602 961.622873,4256.12509 962.968466,4257.72545 C963.633892,4256.95896 964.328874,4256.18789 965.050946,4255.41541 C965.087183,4254.35784 965.141032,4253.32028 965.212117,4252.30692 Z M979.787382,4252.30786 L979.814841,4252.70505 C979.872719,4253.59154 979.917472,4254.49593 979.948471,4255.41558 C980.671126,4256.18789 981.366108,4256.95896 982.031841,4257.72512 C983.377127,4256.12509 984.586715,4254.55602 985.640333,4253.0572 C983.835814,4252.74227 981.870763,4252.48804 979.787382,4252.30786 Z M968.312636,4252.09937 L968.055846,4252.11275 C967.437607,4252.14443 966.827393,4252.18254 966.226155,4252.22678 C966.176439,4252.91038 966.134039,4253.60604 966.100023,4254.31192 L966.230403,4254.17738 L966.230403,4254.17738 L966.551847,4253.84791 L967.196699,4253.1967 C967.568355,4252.82504 967.940465,4252.45919 968.312636,4252.09937 Z M976.689081,4252.10007 L976.815535,4252.22353 C977.144964,4252.54326 977.47431,4252.86771 977.803301,4253.1967 L978.448153,4253.84791 C978.6,4254.00278 978.750818,4254.15768 978.900589,4254.3126 C978.865978,4253.60631 978.823566,4252.91042 978.773216,4252.22616 C978.089948,4252.17646 977.394619,4252.13408 976.689081,4252.10007 Z M989.824116,4241.17588 C988.355194,4239.70696 984.106255,4241.1958 978.857186,4244.73031 C979.227546,4246.74014 979.515694,4248.94437 979.710128,4251.2902 C982.055628,4251.48431 984.25986,4251.77245 986.270077,4252.14182 C989.804298,4246.89348 991.292992,4242.64476 989.824116,4241.17588 Z M955.175884,4241.17588 C953.707008,4242.64476 955.195702,4246.89348 958.729978,4252.14232 C960.74014,4251.77245 962.944372,4251.48431 965.290198,4251.28987 C965.484306,4248.94437 965.772454,4246.74014 966.141818,4244.72992 C960.893745,4241.1958 956.644806,4239.70696 955.175884,4241.17588 Z M967.057363,4245.35978 L967.045782,4245.4244 C966.73616,4247.21151 966.485868,4249.15432 966.307864,4251.21262 C967.319963,4251.14105 968.357186,4251.08722 969.414579,4251.05156 C970.187627,4250.32911 970.958916,4249.63393 971.725288,4248.96801 C970.125075,4247.62287 968.556096,4246.41335 967.057363,4245.35978 Z M977.943042,4245.36011 L977.69252,4245.53659 C976.269696,4246.54799 974.786133,4247.69752 973.274651,4248.96838 C974.041084,4249.63393 974.812373,4250.32911 975.585066,4251.05139 C976.642814,4251.08722 977.680037,4251.14105 978.693077,4251.21212 C978.511955,4249.1293 978.257796,4247.16475 977.943042,4245.36011 Z M972.499457,4249.6278 L972.408424,4249.70742 C971.919575,4250.13054 971.428488,4250.56587 970.936252,4251.01284 L971.128379,4251.0101 L971.128379,4251.0101 L971.583542,4251.0045 L972.5,4251 C973.025224,4251 973.546672,4251.00442 974.063899,4251.01314 C973.540584,4250.53779 973.018718,4250.07588 972.499457,4249.6278 Z M972.5,4234 C970.422722,4234 968.471113,4238.05686 967.258728,4244.26733 C968.941719,4245.42751 970.704108,4246.7824 972.500353,4248.30367 C974.296546,4246.78189 976.058593,4245.42729 977.740909,4244.26723 C976.528872,4238.05683 974.57727,4234 972.5,4234 Z" transform="translate(-947 -4233)"/>
</svg>
