<svg xmlns="http://www.w3.org/2000/svg" width="50" height="51" viewBox="0 0 50 51">
  <defs>
    <linearGradient id="icon-28-4-a" x1="96.553%" x2="3.447%" y1="100%" y2="0%">
      <stop offset="0%" stop-color="#1E85E9"/>
      <stop offset="20.276%" stop-color="#8671F3"/>
      <stop offset="70.727%" stop-color="#C06CFD" stop-opacity=".99"/>
      <stop offset="100%" stop-color="#FFBEE8"/>
    </linearGradient>
  </defs>
  <path fill="url(#icon-28-4-a)" d="M833.428571,4280.32143 C834.414794,4280.32143 835.214286,4281.12092 835.214286,4282.10714 C835.214286,4283.09337 834.414794,4283.89286 833.428571,4283.89286 C832.442349,4283.89286 831.642857,4283.09337 831.642857,4282.10714 C831.642857,4281.12092 832.442349,4280.32143 833.428571,4280.32143 Z M833.428571,4281.21429 C832.93546,4281.21429 832.535714,4281.61403 832.535714,4282.10714 C832.535714,4282.60025 832.93546,4283 833.428571,4283 C833.921683,4283 834.321429,4282.60025 834.321429,4282.10714 C834.321429,4281.61403 833.921683,4281.21429 833.428571,4281.21429 Z M834.413156,4234.42887 C834.439285,4234.67404 834.261719,4234.89397 834.016552,4234.9201 C822.055088,4236.19492 812.892857,4246.32327 812.892857,4258.44643 C812.892857,4263.86301 814.718109,4268.99862 818.013668,4273.14836 C818.85277,4272.60227 819.853703,4272.28571 820.928571,4272.28571 C823.88724,4272.28571 826.285714,4274.68419 826.285714,4277.64286 C826.285714,4280.60153 823.88724,4283 820.928571,4283 C817.969903,4283 815.571429,4280.60153 815.571429,4277.64286 C815.571429,4276.07995 816.24071,4274.67336 817.308302,4273.69406 L817.495406,4273.92874 C813.961558,4269.58392 812,4264.16493 812,4258.44643 C812,4245.86561 821.507715,4235.35534 833.92193,4234.03227 C834.167097,4234.00614 834.387026,4234.18371 834.413156,4234.42887 Z M853.071429,4235.67857 C856.030097,4235.67857 858.428571,4238.07705 858.428571,4241.03571 C858.428571,4242.45907 857.873471,4243.75278 856.967946,4244.71216 L856.754599,4244.40415 C859.617871,4248.44931 861.107143,4253.2222 861.107143,4258.44643 C861.107143,4270.63583 852.169384,4280.93075 840.235713,4282.72569 C839.991899,4282.76236 839.764521,4282.59444 839.72785,4282.35062 C839.691178,4282.10681 839.859099,4281.87943 840.102913,4281.84276 C851.60124,4280.11331 860.214286,4270.1924 860.214286,4258.44643 C860.214286,4253.57355 858.875396,4249.11997 856.297332,4245.31214 C855.400373,4245.99075 854.282859,4246.39286 853.071429,4246.39286 C850.11276,4246.39286 847.714286,4243.99438 847.714286,4241.03571 C847.714286,4238.07705 850.11276,4235.67857 853.071429,4235.67857 Z M820.928571,4273.17857 C818.463015,4273.17857 816.464286,4275.1773 816.464286,4277.64286 C816.464286,4280.10841 818.463015,4282.10714 820.928571,4282.10714 C823.394128,4282.10714 825.392857,4280.10841 825.392857,4277.64286 C825.392857,4275.1773 823.394128,4273.17857 820.928571,4273.17857 Z M836.553571,4244.60714 C844.196798,4244.60714 850.392857,4250.8032 850.392857,4258.44643 C850.392857,4266.08966 844.196798,4272.28571 836.553571,4272.28571 C828.910345,4272.28571 822.714286,4266.08966 822.714286,4258.44643 C822.714286,4250.8032 828.910345,4244.60714 836.553571,4244.60714 Z M836.553571,4245.5 C829.403456,4245.5 823.607143,4251.29631 823.607143,4258.44643 C823.607143,4265.59654 829.403456,4271.39286 836.553571,4271.39286 C843.703686,4271.39286 849.5,4265.59654 849.5,4258.44643 C849.5,4251.29631 843.703686,4245.5 836.553571,4245.5 Z M836.553571,4252.64286 C839.758795,4252.64286 842.357143,4255.2412 842.357143,4258.44643 C842.357143,4261.65165 839.758795,4264.25 836.553571,4264.25 C833.348347,4264.25 830.75,4261.65165 830.75,4258.44643 C830.75,4255.2412 833.348347,4252.64286 836.553571,4252.64286 Z M836.553571,4253.53571 C833.841459,4253.53571 831.642857,4255.73432 831.642857,4258.44643 C831.642857,4261.15854 833.841459,4263.35714 836.553571,4263.35714 C839.265684,4263.35714 841.464286,4261.15854 841.464286,4258.44643 C841.464286,4255.73432 839.265684,4253.53571 836.553571,4253.53571 Z M853.071429,4236.57143 C850.605872,4236.57143 848.607143,4238.57016 848.607143,4241.03571 C848.607143,4243.50127 850.605872,4245.5 853.071429,4245.5 C855.536985,4245.5 857.535714,4243.50127 857.535714,4241.03571 C857.535714,4238.57016 855.536985,4236.57143 853.071429,4236.57143 Z M841.464286,4233 C842.450508,4233 843.25,4233.79949 843.25,4234.78571 C843.25,4235.77194 842.450508,4236.57143 841.464286,4236.57143 C840.478063,4236.57143 839.678571,4235.77194 839.678571,4234.78571 C839.678571,4233.79949 840.478063,4233 841.464286,4233 Z M841.464286,4233.89286 C840.971174,4233.89286 840.571429,4234.2926 840.571429,4234.78571 C840.571429,4235.27883 840.971174,4235.67857 841.464286,4235.67857 C841.957397,4235.67857 842.357143,4235.27883 842.357143,4234.78571 C842.357143,4234.2926 841.957397,4233.89286 841.464286,4233.89286 Z" transform="translate(-812 -4233)"/>
</svg>
