<svg xmlns="http://www.w3.org/2000/svg" width="52" height="51" viewBox="0 0 52 51">
  <defs>
    <linearGradient id="icon-28-6-a" x1="100%" x2="0%" y1="98.095%" y2="1.905%">
      <stop offset="0%" stop-color="#1E85E9"/>
      <stop offset="20.276%" stop-color="#8671F3"/>
      <stop offset="70.727%" stop-color="#C06CFD" stop-opacity=".99"/>
      <stop offset="100%" stop-color="#FFBEE8"/>
    </linearGradient>
  </defs>
  <path fill="url(#icon-28-6-a)" d="M1112.86541,4233 C1113.11325,4233 1113.31937,4233.1767 1113.36212,4233.40972 L1113.37025,4233.49951 L1113.3707,4240.02626 C1116.6702,4240.4603 1119.34001,4245.12305 1120.42243,4251.53998 C1126.22163,4252.56793 1130.35239,4254.76397 1130.80628,4257.47605 L1138.49516,4257.4761 C1138.77397,4257.4761 1139,4257.69996 1139,4257.9761 C1139,4258.22156 1138.82141,4258.42571 1138.5859,4258.46804 L1138.49516,4258.4761 L1130.80612,4258.47617 C1130.35137,4261.18779 1126.22092,4263.38341 1120.42315,4264.41161 C1119.34027,4270.82772 1116.67035,4275.4909 1113.3707,4275.92496 L1113.37025,4283.50049 C1113.37025,4283.77636 1113.14423,4284 1112.86541,4284 C1112.61757,4284 1112.41144,4283.8233 1112.3687,4283.59028 L1112.36056,4283.50049 L1112.36011,4275.92496 C1109.06063,4275.49092 1106.39083,4270.8282 1105.3084,4264.41131 C1099.5101,4263.38352 1095.37945,4261.18786 1094.9247,4258.47617 L1087.50484,4258.4761 C1087.22603,4258.4761 1087,4258.25224 1087,4257.9761 C1087,4257.73064 1087.17859,4257.52649 1087.4141,4257.48415 L1087.50484,4257.4761 L1094.92453,4257.47605 C1095.37843,4254.7639 1099.50938,4252.56783 1105.30808,4251.53954 C1106.39108,4245.12257 1109.06079,4240.46027 1112.36011,4240.02626 L1112.36056,4233.49951 C1112.36056,4233.22364 1112.58659,4233 1112.86541,4233 Z M1090.67479,4258.9749 L1091.68558,4258.97534 C1092.19725,4269.76668 1100.94896,4278.42576 1111.85557,4278.93175 L1111.85549,4279.93184 C1100.391,4279.42426 1091.1878,4270.31828 1090.67479,4258.9749 Z M1135.05603,4258.9749 C1134.54302,4270.31828 1125.33981,4279.42426 1113.87533,4279.93184 L1113.87524,4278.93175 C1124.78186,4278.42576 1133.53357,4269.76668 1134.04524,4258.97534 L1135.05603,4258.9749 Z M1106.36733,4264.58371 L1106.40129,4264.77197 C1107.45125,4270.41685 1109.75254,4274.44894 1112.36055,4274.91406 L1112.36016,4265.04081 C1110.25276,4265.01886 1108.23487,4264.85991 1106.36733,4264.58371 Z M1119.36389,4264.58418 L1119.1339,4264.61697 C1117.33095,4264.87267 1115.39197,4265.01976 1113.37066,4265.04081 L1113.37026,4274.91406 C1116.00711,4274.4438 1118.33041,4270.32727 1119.36389,4264.58418 Z M1113.37088,4251.92023 L1113.37025,4257.4761 C1113.37025,4257.75197 1113.14423,4257.97561 1112.86541,4257.97561 C1112.61757,4257.97561 1112.41144,4257.79891 1112.3687,4257.56589 L1112.36056,4257.4761 L1112.35993,4251.92023 C1110.17543,4251.94405 1108.09572,4252.12165 1106.19504,4252.42106 C1105.93811,4254.16028 1105.79758,4256.02871 1105.79758,4257.97561 C1105.79758,4259.92288 1105.93816,4261.79166 1106.1947,4263.53101 C1108.24179,4263.85258 1110.49615,4264.03375 1112.86541,4264.03375 L1112.6211,4264.03204 C1112.69349,4263.99235 1112.77678,4263.96976 1112.86541,4263.96976 C1112.95403,4263.96976 1113.03733,4263.99235 1113.10972,4264.03204 C1115.38975,4264.0211 1117.55954,4263.84147 1119.53577,4263.53015 C1119.79265,4261.79166 1119.93323,4259.92288 1119.93323,4257.97561 C1119.93323,4256.02871 1119.79271,4254.16028 1119.53626,4252.42121 C1117.6351,4252.12165 1115.55538,4251.94405 1113.37088,4251.92023 Z M1105.14603,4252.60202 L1104.84841,4252.65924 C1099.50718,4253.71135 1095.88199,4255.75729 1095.88199,4257.97561 C1095.88199,4260.23494 1099.64244,4262.31545 1105.14636,4263.3493 C1104.91266,4261.65044 1104.78789,4259.84554 1104.78789,4257.97561 C1104.78789,4256.10531 1104.91271,4254.30007 1105.14603,4252.60202 Z M1120.58445,4252.60192 L1120.63205,4252.95912 C1120.83492,4254.55238 1120.94292,4256.23585 1120.94292,4257.97561 C1120.94292,4259.84554 1120.81816,4261.65044 1120.58492,4263.3482 C1126.08837,4262.31545 1129.84882,4260.23494 1129.84882,4257.97561 C1129.84882,4255.71628 1126.08837,4253.63577 1120.58445,4252.60192 Z M1113.87533,4236.01938 C1125.33989,4236.52696 1134.54315,4245.63307 1135.05604,4256.97656 L1134.04529,4256.97688 C1133.53411,4246.18508 1124.78219,4237.52547 1113.87524,4237.01947 L1113.87533,4236.01938 Z M1111.85549,4236.01938 L1111.85557,4237.01947 C1100.94862,4237.52547 1092.19671,4246.18508 1091.68553,4256.97688 L1090.67478,4256.97656 C1091.18767,4245.63307 1100.39092,4236.52696 1111.85549,4236.01938 Z M1112.36055,4241.03716 C1109.72371,4241.50742 1107.40041,4245.62395 1106.36693,4251.36704 C1108.23487,4251.09131 1110.25276,4250.93236 1112.36016,4250.91041 Z M1113.37026,4241.03716 L1113.37066,4250.91041 C1115.47819,4250.93236 1117.49621,4251.09133 1119.36386,4251.36757 C1118.33041,4245.62395 1116.00711,4241.50742 1113.37026,4241.03716 Z" transform="translate(-1087 -4233)"/>
</svg>
