<svg xmlns="http://www.w3.org/2000/svg" width="50" height="56" viewBox="0 0 50 56">
  <defs>
    <linearGradient id="icon-27-7-a" x1="89.603%" x2="10.397%" y1="100%" y2="0%">
      <stop offset="0%" stop-color="#1E85E9"/>
      <stop offset="20.276%" stop-color="#8671F3"/>
      <stop offset="70.727%" stop-color="#C06CFD" stop-opacity=".99"/>
      <stop offset="100%" stop-color="#FFBEE8"/>
    </linearGradient>
  </defs>
  <path fill="url(#icon-27-7-a)" d="M1253.91942,4089 C1256.68084,4089 1258.91942,4091.23858 1258.91942,4094 C1258.91942,4094.83045 1258.71696,4095.61361 1258.35872,4096.30282 L1269.61875,4102.8152 C1270.03692,4102.15682 1270.61577,4101.58686 1271.338,4101.16987 C1273.72947,4099.78916 1276.78742,4100.60854 1278.16813,4103 C1279.54884,4105.39146 1278.72947,4108.44942 1276.338,4109.83013 C1275.72778,4110.18244 1275.07416,4110.3915 1274.41608,4110.46775 L1274.33809,4123.52383 C1275.02246,4123.59221 1275.70368,4123.80365 1276.338,4124.16987 C1278.72947,4125.55058 1279.54884,4128.60854 1278.16813,4131 C1276.78742,4133.39146 1273.72947,4134.21084 1271.338,4132.83013 C1270.65968,4132.4385 1270.10784,4131.91193 1269.69681,4131.30391 L1258.39119,4137.76077 C1258.72918,4138.43441 1258.91942,4139.19499 1258.91942,4140 C1258.91942,4142.76142 1256.68084,4145 1253.91942,4145 C1251.158,4145 1248.91942,4142.76142 1248.91942,4140 C1248.91942,4139.18449 1249.11466,4138.41458 1249.46094,4137.73447 L1238.1427,4131.30292 C1237.7316,4131.91136 1237.17952,4132.43829 1236.50083,4132.83013 C1234.10937,4134.21084 1231.05142,4133.39146 1229.67071,4131 C1228.29,4128.60854 1229.10937,4125.55058 1231.50083,4124.16987 C1232.13485,4123.80382 1232.81571,4123.59241 1233.49974,4123.52393 L1233.42276,4110.46775 C1232.76468,4110.3915 1232.11106,4110.18244 1231.50083,4109.83013 C1229.10937,4108.44942 1228.29,4105.39146 1229.67071,4103 C1231.05142,4100.60854 1234.10937,4099.78916 1236.50083,4101.16987 C1237.22381,4101.58728 1237.8031,4102.15798 1238.22137,4102.81722 L1249.49801,4096.33691 C1249.12862,4095.63948 1248.91942,4094.84417 1248.91942,4094 C1248.91942,4091.23858 1251.158,4089 1253.91942,4089 Z M1253.91942,4136 C1251.71028,4136 1249.91942,4137.79086 1249.91942,4140 C1249.91942,4142.20914 1251.71028,4144 1253.91942,4144 C1256.12856,4144 1257.91942,4142.20914 1257.91942,4140 C1257.91942,4137.79086 1256.12856,4136 1253.91942,4136 Z M1257.97779,4119.92119 C1257.16168,4121.05301 1255.88377,4121.82972 1254.42012,4121.97524 L1254.42012,4135.02476 C1255.81204,4135.16315 1257.03598,4135.87238 1257.85451,4136.915 L1269.22247,4130.42338 C1268.70533,4129.17986 1268.69379,4127.74083 1269.27889,4126.44616 Z M1249.86032,4119.92017 L1238.55995,4126.44616 C1239.14489,4127.74049 1239.13351,4129.17909 1238.61679,4130.42238 L1250.0027,4136.89174 C1250.82111,4135.86184 1252.03717,4135.16212 1253.41872,4135.02476 L1253.41872,4121.97524 C1251.95463,4121.82967 1250.67639,4121.05254 1249.86032,4119.92017 Z M1275.838,4125.0359 C1273.92483,4123.93133 1271.47847,4124.58683 1270.3739,4126.5 C1269.26933,4128.41317 1269.92483,4130.85953 1271.838,4131.9641 C1273.75117,4133.06867 1276.19754,4132.41317 1277.30211,4130.5 C1278.40667,4128.58683 1277.75117,4126.14047 1275.838,4125.0359 Z M1237.46494,4126.5 C1236.36037,4124.58683 1233.91401,4123.93133 1232.00083,4125.0359 C1230.08766,4126.14047 1229.43216,4128.58683 1230.53673,4130.5 C1231.6413,4132.41317 1234.08766,4133.06867 1236.00083,4131.9641 C1237.91401,4130.85953 1238.56951,4128.41317 1237.46494,4126.5 Z M1238.05899,4108.42149 C1237.1849,4109.63874 1235.83981,4110.36141 1234.42257,4110.48262 L1234.49959,4123.52456 C1235.88843,4123.66496 1237.20075,4124.38333 1238.05899,4125.57851 L1249.35958,4119.05431 C1249.0768,4118.42762 1248.91942,4117.73219 1248.91942,4117 C1248.91942,4116.26781 1249.0768,4115.57238 1249.35958,4114.94569 Z M1269.77984,4108.42149 L1258.47926,4114.94569 C1258.76204,4115.57238 1258.91942,4116.26781 1258.91942,4117 C1258.91942,4117.73258 1258.76187,4118.42837 1258.4788,4119.05532 L1269.77984,4125.57851 C1270.63809,4124.38333 1271.95041,4123.66496 1273.33925,4123.52456 L1273.41642,4110.48264 C1271.99913,4110.36147 1270.65397,4109.63879 1269.77984,4108.42149 Z M1253.91942,4113 C1251.71028,4113 1249.91942,4114.79086 1249.91942,4117 C1249.91942,4119.20914 1251.71028,4121 1253.91942,4121 C1256.12856,4121 1257.91942,4119.20914 1257.91942,4117 C1257.91942,4114.79086 1256.12856,4113 1253.91942,4113 Z M1257.81036,4097.14043 C1256.9923,4098.15272 1255.78723,4098.83931 1254.42012,4098.97524 L1254.42012,4112.02476 C1255.88421,4112.17033 1257.16245,4112.94746 1257.97852,4114.07983 L1269.27889,4107.55384 C1268.71483,4106.30572 1268.70528,4104.92345 1269.16864,4103.71152 Z M1250.05371,4097.17139 L1238.67096,4103.71352 C1239.13355,4104.92497 1239.1237,4106.30641 1238.55995,4107.55384 L1249.86032,4114.07983 C1250.67639,4112.94746 1251.95463,4112.17033 1253.41872,4112.02476 L1253.41872,4098.97524 C1252.06559,4098.8407 1250.87121,4098.16671 1250.05371,4097.17139 Z M1277.30211,4103.5 C1276.19754,4101.58683 1273.75117,4100.93133 1271.838,4102.0359 C1269.92483,4103.14047 1269.26933,4105.58683 1270.3739,4107.5 C1271.47847,4109.41317 1273.92483,4110.06867 1275.838,4108.9641 C1277.75117,4107.85953 1278.40667,4105.41317 1277.30211,4103.5 Z M1236.00083,4102.0359 C1234.08766,4100.93133 1231.6413,4101.58683 1230.53673,4103.5 C1229.43216,4105.41317 1230.08766,4107.85953 1232.00083,4108.9641 C1233.91401,4110.06867 1236.36037,4109.41317 1237.46494,4107.5 C1238.56951,4105.58683 1237.91401,4103.14047 1236.00083,4102.0359 Z M1253.91942,4090 C1251.71028,4090 1249.91942,4091.79086 1249.91942,4094 C1249.91942,4096.20914 1251.71028,4098 1253.91942,4098 C1256.12856,4098 1257.91942,4096.20914 1257.91942,4094 C1257.91942,4091.79086 1256.12856,4090 1253.91942,4090 Z" transform="translate(-1229 -4089)"/>
</svg>
